<svg width="2974" height="610" viewBox="0 0 2974 610" fill="none" xmlns="http://www.w3.org/2000/svg">
<g clip-path="url(#clip0_217_10)">
<path d="M1044.42 580.783C1044.42 580.783 2042.27 70.6746 2580.44 5.7088C3119.01 -59.3085 3087.93 449.359 2590.63 490.458C2090.54 531.762 1414.67 291.857 1414.67 291.857L1418.48 275.397C1418.48 275.397 2121.88 520.6 2594.8 462.527C3045.63 407.129 3078 -74.4826 2486.01 63.6791C1948.88 189.033 1167.36 587.161 1198.8 588.858L1044.42 580.834V580.783Z" fill="black"/>
<path d="M1418.48 275.397C1485.38 296.486 1577.39 320.97 1688.64 336.968C1988.65 380.021 2229.64 332.441 2360.81 305.385C2472.06 282.444 2564.38 254.564 2632.57 231.314C2636.07 240.213 2639.62 249.163 2643.12 258.062C2548.64 288.822 2420.91 323.748 2267 347.204C2170.36 361.915 2036.25 381.667 1861.81 373.025C1751.43 367.573 1595.55 349.261 1414.62 291.857L1418.43 275.397H1418.48Z" fill="black"/>
<path d="M1929.58 29.2157C1929.58 29.2157 931.726 539.324 393.563 604.289C-145.013 669.307 -113.931 160.639 383.374 119.54C883.457 78.2358 1559.33 318.141 1559.33 318.141L1555.52 334.601C1555.52 334.601 852.119 89.3978 379.205 147.522C-71.6314 202.921 -103.999 684.532 487.991 546.371C1025.13 421.017 1806.69 22.8889 1775.25 21.1914L1929.63 29.2157H1929.58Z" fill="black"/>
<path d="M1555.52 334.653C1488.62 313.563 1396.61 289.079 1285.36 273.082C985.347 230.028 744.362 277.608 613.192 304.664C501.936 327.606 409.618 355.485 341.434 378.735C337.935 369.836 334.384 360.886 330.885 351.987C425.364 321.227 553.087 286.301 707.002 262.846C803.643 248.134 937.747 228.382 1112.19 237.024C1222.58 242.476 1378.45 260.788 1559.38 318.193L1555.57 334.653H1555.52Z" fill="black"/>
</g>
<defs>
<clipPath id="clip0_217_10">
<rect width="2974" height="610" fill="white"/>
</clipPath>
</defs>
</svg>
