<svg width="2689" height="695" viewBox="0 0 2689 695" fill="none" xmlns="http://www.w3.org/2000/svg">
<path d="M2688.62 694.971H2601.15L2570.28 611.792H2281.3L2250.43 694.971H2216.99L2439.94 94.709H2465.67L2688.62 694.971ZM2425.36 222.479L2292.45 580.921H2559.14L2425.36 222.479Z" fill="white"/>
<path d="M1915.02 94.709V669.246H2177.43V694.971H1832.7V94.709H1915.02Z" fill="white"/>
<path d="M1747.67 694.971H1660.2L1629.33 611.792H1340.35L1309.48 694.971H1276.04L1498.99 94.709H1524.72L1747.67 694.971ZM1484.41 222.479L1351.5 580.921H1618.18L1484.41 222.479Z" fill="white"/>
<path d="M1296.35 94.709V120.435H1131.71V694.971H1049.38V120.435H884.741V94.709H1296.35Z" fill="white"/>
<path d="M843.642 94.709V125.58H581.242V319.379H792.191V350.249H581.242V664.101H843.642V694.971H498.92V94.709H843.642Z" fill="white"/>
<path d="M204.089 94.709C319.854 94.709 404.748 162.453 404.748 254.207C404.748 382.835 312.994 477.162 187.796 477.162C157.783 477.162 116.622 468.587 82.3217 456.581V694.971H0V94.709H204.089ZM173.219 443.719C259.828 443.719 323.284 380.262 323.284 293.653C323.284 196.754 251.253 125.58 152.638 125.58H82.3217V422.281C110.62 435.143 146.635 443.719 173.219 443.719Z" fill="white"/>
<path d="M765.689 37.5515H564.56C563.052 37.5515 560.962 36.9257 560.177 34.4222C559.391 31.9188 559.987 29.2536 562.14 27.5378C564.293 25.822 568.47 24.7808 575.977 23.6959C624.2 16.7268 714.046 3.50619 733.314 1.42784C752.582 -0.650511 762.403 -0.0521573 766.001 0.685713C770.223 1.55177 778.058 4.71131 780.546 9.59294C784.455 17.2632 783.824 23.8131 780.39 29.3866C777.418 34.2115 772.882 36.6857 765.689 37.5515Z" fill="white"/>
</svg>
