<svg width="2478" height="3059" viewBox="0 0 2478 3059" fill="none" xmlns="http://www.w3.org/2000/svg">
<path d="M2456.86 2162C2297.18 2681.42 1813.57 3059 1241.78 3059C669.992 3059 186.389 2681.42 26.7003 2162H37.171C196.523 2675.82 675.571 3049 1241.78 3049C1807.99 3049 2287.04 2675.82 2446.39 2162H2456.86Z" fill="#CB9D47"/>
<path d="M2412.84 2162C2254.6 2657.88 1790.13 3017 1241.78 3017C693.432 3017 228.96 2657.88 70.7257 2162H91.7413C249.247 2646.66 704.601 2997 1241.78 2997C1778.96 2997 2234.32 2646.66 2391.82 2162H2412.84Z" fill="#F1F1F1"/>
<path d="M2150.05 2162C2002.96 2518.83 1651.7 2770 1241.78 2770C831.863 2770 480.605 2518.83 333.512 2162H355.19C501.121 2507.52 843.134 2750 1241.78 2750C1640.43 2750 1982.44 2507.52 2128.38 2162H2150.05Z" fill="#F1F1F1"/>
<path d="M665.782 665.943C362.18 822.11 130.18 1097.88 32.0304 1431H21.6056C120.539 1092.3 356.67 812.128 665.782 654.707V665.943Z" fill="#CB9D47"/>
<path d="M665.782 724.768C390.794 874.056 180.205 1126.91 86.3576 1431H65.4367C160.986 1115.74 379.796 854.067 665.782 702.06V724.768Z" fill="#F1F1F1"/>
<path d="M665.782 1017.43C525.204 1122.68 414.381 1265.5 348.202 1431H326.691C395.709 1254.22 514.476 1102.34 665.782 992.584V1017.43Z" fill="#F1F1F1"/>
<path d="M1813.78 989.698C1967 1099.67 2087.25 1252.66 2156.87 1431H2135.36C2068.56 1263.94 1956.26 1119.98 1813.78 1014.45V989.698Z" fill="#F1F1F1"/>
<path d="M1813.78 699.943C2101.73 851.632 2322.13 1114.27 2418.13 1431H2397.21C2302.91 1125.44 2090.73 871.609 1813.78 722.606V699.943Z" fill="#F1F1F1"/>
<path d="M1813.78 652.678C2124.86 809.713 2362.6 1090.84 2461.96 1431H2451.53C2352.95 1096.42 2119.35 819.691 1813.78 663.895V652.678Z" fill="#CB9D47"/>
<path d="M135.009 1853.45V2109H0V1485.06H240.124C319.844 1485.06 359.704 1527.5 359.704 1612.36V1684.68C359.704 1736.12 341.381 1768.9 304.735 1783.05C336.881 1794.62 352.953 1820.98 352.953 1862.13V2109H217.944V1872.73C217.944 1859.88 211.836 1853.45 199.621 1853.45H135.009ZM135.009 1576.68V1758.94H206.371C211.515 1758.94 215.694 1757.01 218.908 1753.15C222.765 1749.3 224.694 1744.8 224.694 1739.65V1595.96C224.694 1590.82 222.765 1586.32 218.908 1582.46C215.694 1578.61 211.515 1576.68 206.371 1576.68H135.009Z" fill="#F1F1F1"/>
<path d="M765.591 1602.71V1991.35C765.591 2076.21 725.731 2118.64 646.011 2118.64H517.752C438.032 2118.64 398.172 2076.21 398.172 1991.35V1602.71C398.172 1517.85 438.032 1475.42 517.752 1475.42H646.011C725.731 1475.42 765.591 1517.85 765.591 1602.71ZM630.581 2006.78V1586.32C630.581 1581.18 628.653 1576.68 624.795 1572.82C621.581 1568.96 617.402 1567.03 612.258 1567.03H551.504C546.361 1567.03 541.861 1568.96 538.003 1572.82C534.789 1576.68 533.182 1581.18 533.182 1586.32V2006.78C533.182 2011.92 534.789 2016.42 538.003 2020.28C541.861 2024.14 546.361 2026.07 551.504 2026.07H612.258C617.402 2026.07 621.581 2024.14 624.795 2020.28C628.653 2016.42 630.581 2011.92 630.581 2006.78Z" fill="#F1F1F1"/>
<path d="M1049.47 2006.78V1910.34H1177.73V1991.35C1177.73 2076.21 1137.87 2118.64 1058.15 2118.64H936.643C856.923 2118.64 817.063 2076.21 817.063 1991.35V1602.71C817.063 1517.85 856.923 1475.42 936.643 1475.42H1058.15C1137.87 1475.42 1177.73 1517.85 1177.73 1602.71V1661.54H1049.47V1586.32C1049.47 1581.18 1047.54 1576.68 1043.69 1572.82C1040.47 1568.96 1036.29 1567.03 1031.15 1567.03H970.395C965.252 1567.03 960.751 1568.96 956.894 1572.82C953.679 1576.68 952.072 1581.18 952.072 1586.32V2006.78C952.072 2011.92 953.679 2016.42 956.894 2020.28C960.751 2024.14 965.252 2026.07 970.395 2026.07H1031.15C1036.29 2026.07 1040.47 2024.14 1043.69 2020.28C1047.54 2016.42 1049.47 2011.92 1049.47 2006.78Z" fill="#F1F1F1"/>
<path d="M1345.54 1997.14H1495.01V2109H1210.53V1485.06H1495.01V1595H1345.54V1741.58H1485.37V1847.66H1345.54V1997.14Z" fill="#F1F1F1"/>
<path d="M1659.89 1853.45V2109H1524.88V1485.06H1765.01C1844.73 1485.06 1884.59 1527.5 1884.59 1612.36V1684.68C1884.59 1736.12 1866.26 1768.9 1829.62 1783.05C1861.76 1794.62 1877.84 1820.98 1877.84 1862.13V2109H1742.83V1872.73C1742.83 1859.88 1736.72 1853.45 1724.5 1853.45H1659.89ZM1659.89 1576.68V1758.94H1731.25C1736.4 1758.94 1740.58 1757.01 1743.79 1753.15C1747.65 1749.3 1749.58 1744.8 1749.58 1739.65V1595.96C1749.58 1590.82 1747.65 1586.32 1743.79 1582.46C1740.58 1578.61 1736.4 1576.68 1731.25 1576.68H1659.89Z" fill="#F1F1F1"/>
<path d="M2058.06 1485.06V2109H1923.05V1485.06H2058.06Z" fill="#F1F1F1"/>
<path d="M2358.11 1475.42C2437.83 1475.42 2477.69 1517.85 2477.69 1602.71V2109H2342.68V1899.74H2245.28V2109H2110.27V1602.71C2110.27 1517.85 2150.13 1475.42 2229.85 1475.42H2358.11ZM2245.28 1795.59H2342.68V1586.32C2342.68 1581.18 2340.76 1576.68 2336.9 1572.82C2333.68 1568.96 2329.5 1567.03 2324.36 1567.03H2263.61C2258.46 1567.03 2253.96 1568.96 2250.11 1572.82C2246.89 1576.68 2245.28 1581.18 2245.28 1586.32V1795.59Z" fill="#F1F1F1"/>
<path d="M1121.15 2525.75H1109.65V2521.34C1109.65 2520.88 1109.48 2520.48 1109.13 2520.13C1108.84 2519.79 1108.47 2519.61 1108.01 2519.61H1103.25C1102.79 2519.61 1102.38 2519.79 1102.04 2520.13C1101.75 2520.48 1101.61 2520.88 1101.61 2521.34V2531.29C1101.61 2531.75 1101.75 2532.15 1102.04 2532.5C1102.38 2532.84 1102.79 2533.02 1103.25 2533.02H1111.03C1118.18 2533.13 1121.75 2536.94 1121.75 2544.43V2556.45C1121.75 2564.06 1118.18 2567.86 1111.03 2567.86H1100.83C1093.68 2567.86 1090.11 2564.06 1090.11 2556.45V2550.66H1101.61V2556.88C1101.61 2557.34 1101.75 2557.75 1102.04 2558.09C1102.38 2558.44 1102.79 2558.61 1103.25 2558.61H1108.61C1109.07 2558.61 1109.45 2558.44 1109.74 2558.09C1110.08 2557.75 1110.25 2557.34 1110.25 2556.88V2545.9C1110.25 2545.44 1110.08 2545.04 1109.74 2544.69C1109.45 2544.34 1109.07 2544.17 1108.61 2544.17H1100.83C1093.68 2544.17 1090.11 2540.37 1090.11 2532.76V2521.6C1090.11 2513.99 1093.68 2510.19 1100.83 2510.19H1110.43C1117.58 2510.19 1121.15 2513.99 1121.15 2521.6V2525.75Z" fill="#CB9D47"/>
<path d="M1137.49 2511.05V2567H1125.39V2511.05H1137.49Z" fill="#CB9D47"/>
<path d="M1174.26 2567H1162.15V2520.56C1162.15 2520.1 1161.98 2519.7 1161.63 2519.35C1161.34 2519.01 1160.97 2518.84 1160.51 2518.84H1155.84C1155.38 2518.84 1154.97 2519.01 1154.63 2519.35C1154.34 2519.7 1154.19 2520.1 1154.19 2520.56V2567H1142.09V2521.6C1142.09 2513.99 1145.66 2510.19 1152.81 2510.19H1163.53C1170.68 2510.19 1174.26 2513.99 1174.26 2521.6V2567Z" fill="#CB9D47"/>
<path d="M1198.89 2557.83V2549.19H1210.39V2556.45C1210.39 2564.06 1206.81 2567.86 1199.67 2567.86H1188.77C1181.62 2567.86 1178.05 2564.06 1178.05 2556.45V2521.6C1178.05 2513.99 1181.62 2510.19 1188.77 2510.19H1199.67C1206.81 2510.19 1210.39 2513.99 1210.39 2521.6V2526.88H1198.89V2520.13C1198.89 2519.67 1198.71 2519.27 1198.37 2518.92C1198.08 2518.58 1197.71 2518.4 1197.24 2518.4H1191.8C1191.34 2518.4 1190.93 2518.58 1190.59 2518.92C1190.3 2519.27 1190.15 2519.67 1190.15 2520.13V2557.83C1190.15 2558.3 1190.3 2558.7 1190.59 2559.04C1190.93 2559.39 1191.34 2559.56 1191.8 2559.56H1197.24C1197.71 2559.56 1198.08 2559.39 1198.37 2559.04C1198.71 2558.7 1198.89 2558.3 1198.89 2557.83Z" fill="#CB9D47"/>
<path d="M1225.43 2556.97H1238.84V2567H1213.33V2511.05H1238.84V2520.91H1225.43V2534.05H1237.97V2543.57H1225.43V2556.97Z" fill="#CB9D47"/>
<path d="M1266.52 2547.8V2557.06H1285.2V2567H1255.45V2546.85C1255.45 2539.24 1259.03 2535.44 1266.17 2535.44H1273.09C1273.55 2535.44 1273.93 2535.26 1274.22 2534.92C1274.56 2534.57 1274.73 2534.17 1274.73 2533.71V2521.34C1274.73 2520.88 1274.56 2520.48 1274.22 2520.13C1273.93 2519.79 1273.55 2519.61 1273.09 2519.61H1267.99C1267.53 2519.61 1267.12 2519.79 1266.78 2520.13C1266.49 2520.48 1266.35 2520.88 1266.35 2521.34V2525.75H1254.85V2521.6C1254.85 2513.99 1258.42 2510.19 1265.57 2510.19H1275.17C1282.31 2510.19 1285.89 2513.99 1285.89 2521.6V2534.66C1285.89 2542.27 1282.31 2546.07 1275.17 2546.07H1268.16C1267.7 2546.07 1267.3 2546.25 1266.95 2546.59C1266.66 2546.94 1266.52 2547.34 1266.52 2547.8Z" fill="#CB9D47"/>
<path d="M1322.2 2521.6V2556.45C1322.2 2564.06 1318.62 2567.86 1311.47 2567.86H1301.18C1294.03 2567.86 1290.46 2564.06 1290.46 2556.45V2521.6C1290.46 2513.99 1294.03 2510.19 1301.18 2510.19H1311.47C1318.62 2510.19 1322.2 2513.99 1322.2 2521.6ZM1310.44 2557.83V2520.13C1310.44 2519.67 1310.26 2519.27 1309.92 2518.92C1309.63 2518.58 1309.25 2518.4 1308.79 2518.4H1303.86C1303.4 2518.4 1303 2518.58 1302.65 2518.92C1302.36 2519.27 1302.22 2519.67 1302.22 2520.13V2557.83C1302.22 2558.3 1302.36 2558.7 1302.65 2559.04C1303 2559.39 1303.4 2559.56 1303.86 2559.56H1308.79C1309.25 2559.56 1309.63 2559.39 1309.92 2559.04C1310.26 2558.7 1310.44 2558.3 1310.44 2557.83Z" fill="#CB9D47"/>
<path d="M1337.17 2547.8V2557.06H1355.84V2567H1326.1V2546.85C1326.1 2539.24 1329.67 2535.44 1336.82 2535.44H1343.74C1344.2 2535.44 1344.57 2535.26 1344.86 2534.92C1345.21 2534.57 1345.38 2534.17 1345.38 2533.71V2521.34C1345.38 2520.88 1345.21 2520.48 1344.86 2520.13C1344.57 2519.79 1344.2 2519.61 1343.74 2519.61H1338.64C1338.18 2519.61 1337.77 2519.79 1337.43 2520.13C1337.14 2520.48 1336.99 2520.88 1336.99 2521.34V2525.75H1325.49V2521.6C1325.49 2513.99 1329.07 2510.19 1336.22 2510.19H1345.81C1352.96 2510.19 1356.54 2513.99 1356.54 2521.6V2534.66C1356.54 2542.27 1352.96 2546.07 1345.81 2546.07H1338.81C1338.35 2546.07 1337.94 2546.25 1337.6 2546.59C1337.31 2546.94 1337.17 2547.34 1337.17 2547.8Z" fill="#CB9D47"/>
<path d="M1382.03 2511.05H1392.84V2567H1382.03V2544.95H1371.92C1364.77 2544.95 1361.19 2541.14 1361.19 2533.54V2511.05H1371.92V2533.02C1371.92 2533.48 1372.06 2533.88 1372.35 2534.23C1372.69 2534.57 1373.1 2534.75 1373.56 2534.75H1380.39C1380.85 2534.75 1381.23 2534.57 1381.51 2534.23C1381.86 2533.88 1382.03 2533.48 1382.03 2533.02V2511.05Z" fill="#CB9D47"/>
<path d="M904.015 1168.14C1000.84 1168.14 1089.09 1204.81 1155.64 1265H706.782V1224.09C764.084 1188.62 831.657 1168.14 904.015 1168.14ZM898.685 1001.54C1095.73 1001.54 1268.08 1107.24 1362.05 1265H1223.42C1145.77 1175.97 1031.47 1119.71 904.015 1119.71C832.798 1119.71 765.687 1137.28 706.782 1168.31V1036.69C766.398 1013.98 831.088 1001.54 898.685 1001.54ZM914.676 830.096C1205.49 830.096 1454.2 1010.26 1555.15 1265H1417.66C1318.98 1079.45 1123.6 953.109 898.685 953.109C831.484 953.109 766.919 964.387 706.782 985.154V862.015C772.377 841.281 842.22 830.096 914.676 830.096ZM1575.81 1153.61C1650.57 1153.61 1719.86 1176.98 1776.78 1216.8V1265H1607.02C1592.82 1226.25 1575.46 1189.02 1555.25 1153.63C1561.53 1153.56 1568.21 1153.61 1575.81 1153.61ZM1575.81 992.822C1649.32 992.822 1717.3 1006.78 1776.78 1031.12V1159.33C1717.75 1124.91 1649.09 1105.18 1575.81 1105.18C1559.29 1105.18 1543.01 1106.18 1527.01 1108.13C1502.46 1071.6 1474.73 1037.39 1444.2 1005.89C1484.85 996.099 1526.66 992.822 1575.81 992.822ZM1563.22 814.598C1640.14 814.598 1712.49 827.257 1776.78 849.517V979.477C1715.47 956.936 1647.44 944.391 1575.81 944.391C1512.29 944.391 1457.09 950.919 1403.93 967.338C1366.07 933.735 1324.72 903.969 1280.5 878.653C1359.99 838.612 1457.26 814.598 1563.22 814.598ZM1281.19 823.984C1263.16 832.408 1245.8 841.715 1229.13 851.878C1223.06 849.009 1216.93 846.219 1210.77 843.512V727.423H1280L1281.19 823.984ZM1162.31 824.272C1140.47 816.49 1118.16 809.707 1095.43 803.98V727.423H1162.31V824.272ZM917.484 781.671C916.548 781.668 915.613 781.665 914.676 781.665C842.484 781.665 772.716 792.04 706.782 811.375V780.228L917.484 669.454V781.671ZM1310.17 468.39L1408.45 589.881L1408.12 781.827C1380.77 787.679 1354.52 795.139 1329.41 804.148L1328.04 693.522V678.993H1046.97V793.501C1020.43 788.693 993.394 785.305 965.944 783.42V589.712L1061.24 468.907L1187.7 398.013L1310.17 468.39ZM1559.41 102.164C1691.27 197.473 1776.78 350.617 1776.78 523.298C1776.78 530.257 1776.64 537.183 1776.37 544.076H1776.78V798.493C1728.32 783.106 1676.2 772.796 1621.65 768.472L1647.79 513.907C1663.06 516.73 1678.8 518.204 1694.88 518.204C1723.4 518.204 1750.83 513.568 1776.46 505.012C1775.87 488.119 1774.45 471.43 1772.26 454.98C1748.33 464.524 1722.22 469.774 1694.88 469.774C1579.53 469.774 1486.02 376.32 1486.02 261.039C1486.02 197.422 1514.5 140.45 1559.41 102.164ZM1537.33 464.378C1556.42 479.171 1577.64 491.34 1600.47 500.341L1573.16 766.236C1569.85 766.192 1566.54 766.168 1563.22 766.168C1526.17 766.168 1490.62 768.581 1456.6 773.309L1456.95 572.488L1456.7 572.487L1445.37 558.482L1537.33 464.378ZM1437.56 261.039C1437.56 282.026 1440.08 302.425 1444.82 321.952L1296.63 404.743L1188.4 342.553L1188.28 342.756L1188.03 342.298L1029.53 431.156L1029.4 431.051L1029.14 431.373L1029.08 431.41L1029.09 431.437L917.455 572.951L917.513 572.997H917.484V614.731L706.782 725.505V544.076H707.198C706.923 537.183 706.782 530.257 706.782 523.298C706.782 460.078 718.244 399.476 739.246 343.372L740.219 340.794L1437.57 258.48C1437.57 259.332 1437.56 260.185 1437.56 261.039ZM1148.74 529.828V607.316H1226.28V529.828H1148.74ZM1460.99 368.403C1471.57 391.374 1485.43 412.518 1501.98 431.237L1414.69 520.56L1344.32 433.58L1460.99 368.403ZM1460.16 155.496C1452.51 172.464 1446.65 190.41 1442.81 209.095L763.109 289.323C802.056 213.238 859.405 147.731 929.449 98.3854L1460.16 155.496ZM1241.78 0C1342.64 0 1436.97 27.2984 1517.49 74.7501C1506.26 85.4307 1496 97.1149 1486.85 109.658L998.51 57.1062C1071.49 20.596 1154.18 1.08709e-07 1241.78 0ZM1554.46 98.6276C1555.96 99.6894 1557.46 100.759 1558.95 101.836C1557.74 100.96 1556.52 100.09 1555.3 99.2235C1555.02 99.0251 1554.74 98.826 1554.46 98.6276ZM1554.21 98.4554C1554.3 98.5127 1554.38 98.5702 1554.46 98.6276C1554.18 98.433 1553.91 98.239 1553.63 98.0449C1553.82 98.1818 1554.02 98.3182 1554.21 98.4554ZM1552.11 96.9789C1551.34 96.4449 1550.57 95.9127 1549.8 95.3822C1547.91 94.0786 1546.02 92.7861 1544.11 91.5059C1546.79 93.307 1549.46 95.1314 1552.11 96.9789ZM1543.98 91.416C1544.02 91.4457 1544.06 91.4761 1544.11 91.5059C1543.96 91.4055 1543.81 91.3053 1543.66 91.2051C1543.76 91.2756 1543.87 91.3455 1543.98 91.416ZM1530.78 82.8433C1530.9 82.9222 1531.03 83.0017 1531.15 83.0807C1531.35 83.2042 1531.55 83.3287 1531.74 83.4524L1530.78 82.8433ZM1525.49 79.5563C1525.56 79.6045 1525.64 79.6528 1525.72 79.701C1525.79 79.7437 1525.86 79.7869 1525.93 79.8296C1525.75 79.7205 1525.57 79.6113 1525.4 79.5023C1525.43 79.5205 1525.46 79.5381 1525.49 79.5563Z" fill="#FBB725"/>
</svg>
