<svg width="2666" height="3121" viewBox="0 0 2666 3121" fill="none" xmlns="http://www.w3.org/2000/svg">
<circle cx="1333" cy="1788" r="1333" fill="#1C1C1C"/>
<ellipse cx="1336" cy="526" rx="535" ry="526" fill="#1C1C1C"/>
<path d="M2550.86 2163C2391.18 2682.42 1907.57 3060 1335.78 3060C763.992 3060 280.389 2682.42 120.7 2163H131.171C290.523 2676.82 769.571 3050 1335.78 3050C1901.99 3050 2381.04 2676.82 2540.39 2163H2550.86Z" fill="#CB9D47"/>
<path d="M2506.84 2163C2348.6 2658.88 1884.13 3018 1335.78 3018C787.432 3018 322.96 2658.88 164.726 2163H185.741C343.247 2647.66 798.601 2998 1335.78 2998C1872.96 2998 2328.32 2647.66 2485.82 2163H2506.84Z" fill="#F1F1F1"/>
<path d="M2244.05 2163C2096.96 2519.83 1745.7 2771 1335.78 2771C925.863 2771 574.605 2519.83 427.512 2163H449.19C595.121 2508.52 937.134 2751 1335.78 2751C1734.43 2751 2076.44 2508.52 2222.38 2163H2244.05Z" fill="#F1F1F1"/>
<path d="M759.782 666.943C456.18 823.11 224.18 1098.88 126.03 1432H115.606C214.539 1093.3 450.67 813.128 759.782 655.707V666.943Z" fill="#CB9D47"/>
<path d="M759.782 725.768C484.794 875.056 274.205 1127.91 180.358 1432H159.437C254.986 1116.74 473.796 855.067 759.782 703.06V725.768Z" fill="#F1F1F1"/>
<path d="M759.782 1018.43C619.204 1123.68 508.381 1266.5 442.202 1432H420.691C489.709 1255.22 608.476 1103.34 759.782 993.584V1018.43Z" fill="#F1F1F1"/>
<path d="M1907.78 990.698C2061 1100.67 2181.25 1253.66 2250.87 1432H2229.36C2162.56 1264.94 2050.26 1120.98 1907.78 1015.45V990.698Z" fill="#F1F1F1"/>
<path d="M1907.78 700.943C2195.73 852.632 2416.13 1115.27 2512.13 1432H2491.21C2396.91 1126.44 2184.73 872.609 1907.78 723.606V700.943Z" fill="#F1F1F1"/>
<path d="M1907.78 653.678C2218.86 810.713 2456.6 1091.84 2555.96 1432H2545.53C2446.95 1097.42 2213.35 820.691 1907.78 664.895V653.678Z" fill="#CB9D47"/>
<path d="M229.009 1854.45V2110H94V1486.06H334.124C413.844 1486.06 453.704 1528.5 453.704 1613.36V1685.68C453.704 1737.12 435.381 1769.9 398.735 1784.05C430.881 1795.62 446.953 1821.98 446.953 1863.13V2110H311.944V1873.73C311.944 1860.88 305.836 1854.45 293.621 1854.45H229.009ZM229.009 1577.68V1759.94H300.371C305.515 1759.94 309.694 1758.01 312.908 1754.15C316.765 1750.3 318.694 1745.8 318.694 1740.65V1596.96C318.694 1591.82 316.765 1587.32 312.908 1583.46C309.694 1579.61 305.515 1577.68 300.371 1577.68H229.009Z" fill="#F1F1F1"/>
<path d="M859.591 1603.71V1992.35C859.591 2077.21 819.731 2119.64 740.011 2119.64H611.752C532.032 2119.64 492.172 2077.21 492.172 1992.35V1603.71C492.172 1518.85 532.032 1476.42 611.752 1476.42H740.011C819.731 1476.42 859.591 1518.85 859.591 1603.71ZM724.581 2007.78V1587.32C724.581 1582.18 722.653 1577.68 718.795 1573.82C715.581 1569.96 711.402 1568.03 706.258 1568.03H645.504C640.361 1568.03 635.861 1569.96 632.003 1573.82C628.789 1577.68 627.182 1582.18 627.182 1587.32V2007.78C627.182 2012.92 628.789 2017.42 632.003 2021.28C635.861 2025.14 640.361 2027.07 645.504 2027.07H706.258C711.402 2027.07 715.581 2025.14 718.795 2021.28C722.653 2017.42 724.581 2012.92 724.581 2007.78Z" fill="#F1F1F1"/>
<path d="M1143.47 2007.78V1911.34H1271.73V1992.35C1271.73 2077.21 1231.87 2119.64 1152.15 2119.64H1030.64C950.923 2119.64 911.063 2077.21 911.063 1992.35V1603.71C911.063 1518.85 950.923 1476.42 1030.64 1476.42H1152.15C1231.87 1476.42 1271.73 1518.85 1271.73 1603.71V1662.54H1143.47V1587.32C1143.47 1582.18 1141.54 1577.68 1137.69 1573.82C1134.47 1569.96 1130.29 1568.03 1125.15 1568.03H1064.39C1059.25 1568.03 1054.75 1569.96 1050.89 1573.82C1047.68 1577.68 1046.07 1582.18 1046.07 1587.32V2007.78C1046.07 2012.92 1047.68 2017.42 1050.89 2021.28C1054.75 2025.14 1059.25 2027.07 1064.39 2027.07H1125.15C1130.29 2027.07 1134.47 2025.14 1137.69 2021.28C1141.54 2017.42 1143.47 2012.92 1143.47 2007.78Z" fill="#F1F1F1"/>
<path d="M1439.54 1998.14H1589.01V2110H1304.53V1486.06H1589.01V1596H1439.54V1742.58H1579.37V1848.66H1439.54V1998.14Z" fill="#F1F1F1"/>
<path d="M1753.89 1854.45V2110H1618.88V1486.06H1859.01C1938.73 1486.06 1978.59 1528.5 1978.59 1613.36V1685.68C1978.59 1737.12 1960.26 1769.9 1923.62 1784.05C1955.76 1795.62 1971.84 1821.98 1971.84 1863.13V2110H1836.83V1873.73C1836.83 1860.88 1830.72 1854.45 1818.5 1854.45H1753.89ZM1753.89 1577.68V1759.94H1825.25C1830.4 1759.94 1834.58 1758.01 1837.79 1754.15C1841.65 1750.3 1843.58 1745.8 1843.58 1740.65V1596.96C1843.58 1591.82 1841.65 1587.32 1837.79 1583.46C1834.58 1579.61 1830.4 1577.68 1825.25 1577.68H1753.89Z" fill="#F1F1F1"/>
<path d="M2152.06 1486.06V2110H2017.05V1486.06H2152.06Z" fill="#F1F1F1"/>
<path d="M2452.11 1476.42C2531.83 1476.42 2571.69 1518.85 2571.69 1603.71V2110H2436.68V1900.74H2339.28V2110H2204.27V1603.71C2204.27 1518.85 2244.13 1476.42 2323.85 1476.42H2452.11ZM2339.28 1796.59H2436.68V1587.32C2436.68 1582.18 2434.76 1577.68 2430.9 1573.82C2427.68 1569.96 2423.5 1568.03 2418.36 1568.03H2357.61C2352.46 1568.03 2347.96 1569.96 2344.11 1573.82C2340.89 1577.68 2339.28 1582.18 2339.28 1587.32V1796.59Z" fill="#F1F1F1"/>
<path d="M1215.15 2526.75H1203.65V2522.34C1203.65 2521.88 1203.48 2521.48 1203.13 2521.13C1202.84 2520.79 1202.47 2520.61 1202.01 2520.61H1197.25C1196.79 2520.61 1196.38 2520.79 1196.04 2521.13C1195.75 2521.48 1195.61 2521.88 1195.61 2522.34V2532.29C1195.61 2532.75 1195.75 2533.15 1196.04 2533.5C1196.38 2533.84 1196.79 2534.02 1197.25 2534.02H1205.03C1212.18 2534.13 1215.75 2537.94 1215.75 2545.43V2557.45C1215.75 2565.06 1212.18 2568.86 1205.03 2568.86H1194.83C1187.68 2568.86 1184.11 2565.06 1184.11 2557.45V2551.66H1195.61V2557.88C1195.61 2558.34 1195.75 2558.75 1196.04 2559.09C1196.38 2559.44 1196.79 2559.61 1197.25 2559.61H1202.61C1203.07 2559.61 1203.45 2559.44 1203.74 2559.09C1204.08 2558.75 1204.25 2558.34 1204.25 2557.88V2546.9C1204.25 2546.44 1204.08 2546.04 1203.74 2545.69C1203.45 2545.34 1203.07 2545.17 1202.61 2545.17H1194.83C1187.68 2545.17 1184.11 2541.37 1184.11 2533.76V2522.6C1184.11 2514.99 1187.68 2511.19 1194.83 2511.19H1204.43C1211.58 2511.19 1215.15 2514.99 1215.15 2522.6V2526.75Z" fill="#CB9D47"/>
<path d="M1231.49 2512.05V2568H1219.39V2512.05H1231.49Z" fill="#CB9D47"/>
<path d="M1268.26 2568H1256.15V2521.56C1256.15 2521.1 1255.98 2520.7 1255.63 2520.35C1255.34 2520.01 1254.97 2519.84 1254.51 2519.84H1249.84C1249.38 2519.84 1248.97 2520.01 1248.63 2520.35C1248.34 2520.7 1248.19 2521.1 1248.19 2521.56V2568H1236.09V2522.6C1236.09 2514.99 1239.66 2511.19 1246.81 2511.19H1257.53C1264.68 2511.19 1268.26 2514.99 1268.26 2522.6V2568Z" fill="#CB9D47"/>
<path d="M1292.89 2558.83V2550.19H1304.39V2557.45C1304.39 2565.06 1300.81 2568.86 1293.67 2568.86H1282.77C1275.62 2568.86 1272.05 2565.06 1272.05 2557.45V2522.6C1272.05 2514.99 1275.62 2511.19 1282.77 2511.19H1293.67C1300.81 2511.19 1304.39 2514.99 1304.39 2522.6V2527.88H1292.89V2521.13C1292.89 2520.67 1292.71 2520.27 1292.37 2519.92C1292.08 2519.58 1291.71 2519.4 1291.24 2519.4H1285.8C1285.34 2519.4 1284.93 2519.58 1284.59 2519.92C1284.3 2520.27 1284.15 2520.67 1284.15 2521.13V2558.83C1284.15 2559.3 1284.3 2559.7 1284.59 2560.04C1284.93 2560.39 1285.34 2560.56 1285.8 2560.56H1291.24C1291.71 2560.56 1292.08 2560.39 1292.37 2560.04C1292.71 2559.7 1292.89 2559.3 1292.89 2558.83Z" fill="#CB9D47"/>
<path d="M1319.43 2557.97H1332.84V2568H1307.33V2512.05H1332.84V2521.91H1319.43V2535.05H1331.97V2544.57H1319.43V2557.97Z" fill="#CB9D47"/>
<path d="M1360.52 2548.8V2558.06H1379.2V2568H1349.45V2547.85C1349.45 2540.24 1353.03 2536.44 1360.17 2536.44H1367.09C1367.55 2536.44 1367.93 2536.26 1368.22 2535.92C1368.56 2535.57 1368.73 2535.17 1368.73 2534.71V2522.34C1368.73 2521.88 1368.56 2521.48 1368.22 2521.13C1367.93 2520.79 1367.55 2520.61 1367.09 2520.61H1361.99C1361.53 2520.61 1361.12 2520.79 1360.78 2521.13C1360.49 2521.48 1360.35 2521.88 1360.35 2522.34V2526.75H1348.85V2522.6C1348.85 2514.99 1352.42 2511.19 1359.57 2511.19H1369.17C1376.31 2511.19 1379.89 2514.99 1379.89 2522.6V2535.66C1379.89 2543.27 1376.31 2547.07 1369.17 2547.07H1362.16C1361.7 2547.07 1361.3 2547.25 1360.95 2547.59C1360.66 2547.94 1360.52 2548.34 1360.52 2548.8Z" fill="#CB9D47"/>
<path d="M1416.2 2522.6V2557.45C1416.2 2565.06 1412.62 2568.86 1405.47 2568.86H1395.18C1388.03 2568.86 1384.46 2565.06 1384.46 2557.45V2522.6C1384.46 2514.99 1388.03 2511.19 1395.18 2511.19H1405.47C1412.62 2511.19 1416.2 2514.99 1416.2 2522.6ZM1404.44 2558.83V2521.13C1404.44 2520.67 1404.26 2520.27 1403.92 2519.92C1403.63 2519.58 1403.25 2519.4 1402.79 2519.4H1397.86C1397.4 2519.4 1397 2519.58 1396.65 2519.92C1396.36 2520.27 1396.22 2520.67 1396.22 2521.13V2558.83C1396.22 2559.3 1396.36 2559.7 1396.65 2560.04C1397 2560.39 1397.4 2560.56 1397.86 2560.56H1402.79C1403.25 2560.56 1403.63 2560.39 1403.92 2560.04C1404.26 2559.7 1404.44 2559.3 1404.44 2558.83Z" fill="#CB9D47"/>
<path d="M1431.17 2548.8V2558.06H1449.84V2568H1420.1V2547.85C1420.1 2540.24 1423.67 2536.44 1430.82 2536.44H1437.74C1438.2 2536.44 1438.57 2536.26 1438.86 2535.92C1439.21 2535.57 1439.38 2535.17 1439.38 2534.71V2522.34C1439.38 2521.88 1439.21 2521.48 1438.86 2521.13C1438.57 2520.79 1438.2 2520.61 1437.74 2520.61H1432.64C1432.18 2520.61 1431.77 2520.79 1431.43 2521.13C1431.14 2521.48 1430.99 2521.88 1430.99 2522.34V2526.75H1419.49V2522.6C1419.49 2514.99 1423.07 2511.19 1430.22 2511.19H1439.81C1446.96 2511.19 1450.54 2514.99 1450.54 2522.6V2535.66C1450.54 2543.27 1446.96 2547.07 1439.81 2547.07H1432.81C1432.35 2547.07 1431.94 2547.25 1431.6 2547.59C1431.31 2547.94 1431.17 2548.34 1431.17 2548.8Z" fill="#CB9D47"/>
<path d="M1476.03 2512.05H1486.84V2568H1476.03V2545.95H1465.92C1458.77 2545.95 1455.19 2542.14 1455.19 2534.54V2512.05H1465.92V2534.02C1465.92 2534.48 1466.06 2534.88 1466.35 2535.23C1466.69 2535.57 1467.1 2535.75 1467.56 2535.75H1474.39C1474.85 2535.75 1475.23 2535.57 1475.51 2535.23C1475.86 2534.88 1476.03 2534.48 1476.03 2534.02V2512.05Z" fill="#CB9D47"/>
<path d="M998.015 1169.14C1094.84 1169.14 1183.09 1205.81 1249.64 1266H800.782V1225.09C858.084 1189.62 925.657 1169.14 998.015 1169.14ZM992.685 1002.54C1189.73 1002.54 1362.08 1108.24 1456.05 1266H1317.42C1239.77 1176.97 1125.47 1120.71 998.015 1120.71C926.798 1120.71 859.687 1138.28 800.782 1169.31V1037.69C860.398 1014.98 925.088 1002.54 992.685 1002.54ZM1008.68 831.096C1299.49 831.096 1548.2 1011.26 1649.15 1266H1511.66C1412.98 1080.45 1217.6 954.109 992.685 954.109C925.484 954.109 860.919 965.387 800.782 986.154V863.015C866.377 842.281 936.22 831.096 1008.68 831.096ZM1669.81 1154.61C1744.57 1154.61 1813.86 1177.98 1870.78 1217.8V1266H1701.02C1686.82 1227.25 1669.46 1190.02 1649.25 1154.63C1655.53 1154.56 1662.21 1154.61 1669.81 1154.61ZM1669.81 993.822C1743.32 993.822 1811.3 1007.78 1870.78 1032.12V1160.33C1811.75 1125.91 1743.09 1106.18 1669.81 1106.18C1653.29 1106.18 1637.01 1107.18 1621.01 1109.13C1596.46 1072.6 1568.73 1038.39 1538.2 1006.89C1578.85 997.099 1620.66 993.822 1669.81 993.822ZM1657.22 815.598C1734.14 815.598 1806.49 828.257 1870.78 850.517V980.477C1809.47 957.936 1741.44 945.391 1669.81 945.391C1606.29 945.391 1551.09 951.919 1497.93 968.338C1460.07 934.735 1418.72 904.969 1374.5 879.653C1453.99 839.612 1551.26 815.598 1657.22 815.598ZM1375.19 824.984C1357.16 833.408 1339.8 842.715 1323.13 852.878C1317.06 850.009 1310.93 847.219 1304.77 844.512V728.423H1374L1375.19 824.984ZM1256.31 825.272C1234.47 817.49 1212.16 810.707 1189.43 804.98V728.423H1256.31V825.272ZM1011.48 782.671C1010.55 782.668 1009.61 782.665 1008.68 782.665C936.484 782.665 866.716 793.04 800.782 812.375V781.228L1011.48 670.454V782.671ZM1404.17 469.39L1502.45 590.881L1502.12 782.827C1474.77 788.679 1448.52 796.139 1423.41 805.148L1422.04 694.522V679.993H1140.97V794.501C1114.43 789.693 1087.39 786.305 1059.94 784.42V590.712L1155.24 469.907L1281.7 399.013L1404.17 469.39ZM1653.41 103.164C1785.27 198.473 1870.78 351.617 1870.78 524.298C1870.78 531.257 1870.64 538.183 1870.37 545.076H1870.78V799.493C1822.32 784.106 1770.2 773.796 1715.65 769.472L1741.79 514.907C1757.06 517.73 1772.8 519.204 1788.88 519.204C1817.4 519.204 1844.83 514.568 1870.46 506.012C1869.87 489.119 1868.45 472.43 1866.26 455.98C1842.33 465.524 1816.22 470.774 1788.88 470.774C1673.53 470.774 1580.02 377.32 1580.02 262.039C1580.02 198.422 1608.5 141.45 1653.41 103.164ZM1631.33 465.378C1650.42 480.171 1671.64 492.34 1694.47 501.341L1667.16 767.236C1663.85 767.192 1660.54 767.168 1657.22 767.168C1620.17 767.168 1584.62 769.581 1550.6 774.309L1550.95 573.488L1550.7 573.487L1539.37 559.482L1631.33 465.378ZM1531.56 262.039C1531.56 283.026 1534.08 303.425 1538.82 322.952L1390.63 405.743L1282.4 343.553L1282.28 343.756L1282.03 343.298L1123.53 432.156L1123.4 432.051L1123.14 432.373L1123.08 432.41L1123.09 432.437L1011.46 573.951L1011.51 573.997H1011.48V615.731L800.782 726.505V545.076H801.198C800.923 538.183 800.782 531.257 800.782 524.298C800.782 461.078 812.244 400.476 833.246 344.372L834.219 341.794L1531.57 259.48C1531.57 260.332 1531.56 261.185 1531.56 262.039ZM1242.74 530.828V608.316H1320.28V530.828H1242.74ZM1554.99 369.403C1565.57 392.374 1579.43 413.518 1595.98 432.237L1508.69 521.56L1438.32 434.58L1554.99 369.403ZM1554.16 156.496C1546.51 173.464 1540.65 191.41 1536.81 210.095L857.109 290.323C896.056 214.238 953.405 148.731 1023.45 99.3854L1554.16 156.496ZM1335.78 1C1436.64 1 1530.97 28.2984 1611.49 75.7501C1600.26 86.4307 1590 98.1149 1580.85 110.658L1092.51 58.1062C1165.49 21.596 1248.18 1 1335.78 1ZM1648.46 99.6276C1649.96 100.689 1651.46 101.759 1652.95 102.836C1651.74 101.96 1650.52 101.09 1649.3 100.224C1649.02 100.025 1648.74 99.826 1648.46 99.6276ZM1648.21 99.4554C1648.3 99.5127 1648.38 99.5702 1648.46 99.6276C1648.18 99.433 1647.91 99.239 1647.63 99.0449C1647.82 99.1818 1648.02 99.3182 1648.21 99.4554ZM1646.11 97.9789C1645.34 97.4449 1644.57 96.9127 1643.8 96.3822C1641.91 95.0786 1640.02 93.7861 1638.11 92.5059C1640.79 94.307 1643.46 96.1314 1646.11 97.9789ZM1637.98 92.416C1638.02 92.4457 1638.06 92.4761 1638.11 92.5059C1637.96 92.4055 1637.81 92.3053 1637.66 92.2051C1637.76 92.2756 1637.87 92.3455 1637.98 92.416ZM1624.78 83.8433C1624.9 83.9222 1625.03 84.0017 1625.15 84.0807C1625.35 84.2042 1625.55 84.3287 1625.74 84.4524L1624.78 83.8433ZM1619.49 80.5563C1619.56 80.6045 1619.64 80.6528 1619.72 80.701C1619.79 80.7437 1619.86 80.7869 1619.93 80.8296C1619.75 80.7205 1619.57 80.6113 1619.4 80.5023C1619.43 80.5205 1619.46 80.5381 1619.49 80.5563Z" fill="#FBB725"/>
</svg>
